RBDS05runT25_grf
version=1
nRows=37
nColumns=19
inDegrees=no
endheader
time	ground_force_r_vx	ground_force_r_vy	ground_force_r_vz	ground_force_r_px	ground_force_r_py	ground_force_r_pz	ground_force_r_mx	ground_force_r_my	ground_force_r_mz	ground_force_l_vx	ground_force_l_vy	ground_force_l_vz	ground_force_l_px	ground_force_l_py	ground_force_l_pz	ground_force_l_mx	ground_force_l_my	ground_force_l_mz
     14.99900000	      0.00000000	      0.00000000	      0.00000000	      0.00000000	      0.00000000	      0.00000000	      0.00000000	      0.00000000	      0.00000000	     83.68601789	    277.86776869	      4.30436174	      2.01831943	      0.00000000	      0.98015916	     -0.00000000	      5.08062020	      0.00000000
     15.00000000	      0.00000000	      0.00000000	      0.00000000	      0.00000000	      0.00000000	      0.00000000	      0.00000000	      0.00000000	      0.00000000	     81.90063889	    267.36447752	      3.91559648	      2.01635502	      0.00000000	      0.98042117	     -0.00000000	      4.89211661	      0.00000000
     15.00100000	      0.00000000	      0.00000000	      0.00000000	      0.00000000	      0.00000000	      0.00000000	      0.00000000	      0.00000000	      0.00000000	     80.01566909	    257.51115299	      3.59154659	      2.01444010	      0.00000000	      0.98069801	     -0.00000000	      4.69909870	      0.00000000
     15.00200000	      0.00000000	      0.00000000	      0.00000000	      0.00000000	      0.00000000	      0.00000000	      0.00000000	      0.00000000	      0.00000000	     78.13069928	    247.65782847	      3.26749670	      2.01252519	      0.00000000	      0.98097484	     -0.00000000	      4.50608078	      0.00000000
     15.00300000	      0.00000000	      0.00000000	      0.00000000	      0.00000000	      0.00000000	      0.00000000	      0.00000000	      0.00000000	      0.00000000	     76.24572948	    237.80450394	      2.94344681	      2.01061028	      0.00000000	      0.98125167	     -0.00000000	      4.31306287	      0.00000000
     15.00400000	      0.00000000	      0.00000000	      0.00000000	      0.00000000	      0.00000000	      0.00000000	      0.00000000	      0.00000000	      0.00000000	     74.31986199	    228.40974354	      2.65957411	      2.00873388	      0.00000000	      0.98153636	     -0.00000000	      4.11811430	      0.00000000
     15.00500000	      0.00000000	      0.00000000	      0.00000000	      0.00000000	      0.00000000	      0.00000000	      0.00000000	      0.00000000	      0.00000000	     72.37354565	    219.24426520	      2.39579001	      2.00687674	      0.00000000	      0.98182497	     -0.00000000	      3.92220041	      0.00000000
     15.00600000	      0.00000000	      0.00000000	      0.00000000	      0.00000000	      0.00000000	      0.00000000	      0.00000000	      0.00000000	      0.00000000	     70.42722932	    210.07878686	      2.13200590	      2.00501960	      0.00000000	      0.98211358	     -0.00000000	      3.72628651	      0.00000000
     15.00700000	      0.00000000	      0.00000000	      0.00000000	      0.00000000	      0.00000000	      0.00000000	      0.00000000	      0.00000000	      0.00000000	     68.47317892	    201.15182337	      1.88656045	      2.00318482	      0.00000000	      0.98240488	     -0.00000000	      3.53004525	      0.00000000
     15.00800000	      0.00000000	      0.00000000	      0.00000000	      0.00000000	      0.00000000	      0.00000000	      0.00000000	      0.00000000	      0.00000000	     66.50366039	    192.70188959	      1.67779229	      2.00139476	      0.00000000	      0.98270157	     -0.00000000	      3.33314926	      0.00000000
     15.00900000	      0.00000000	      0.00000000	      0.00000000	      0.00000000	      0.00000000	      0.00000000	      0.00000000	      0.00000000	      0.00000000	     64.53414185	    184.25195580	      1.46902413	      1.99960469	      0.00000000	      0.98299826	     -0.00000000	      3.13625327	      0.00000000
     15.01000000	      0.00000000	      0.00000000	      0.00000000	      0.00000000	      0.00000000	      0.00000000	      0.00000000	      0.00000000	      0.00000000	     62.56462332	    175.80202202	      1.26025598	      1.99781463	      0.00000000	      0.98329495	     -0.00000000	      2.93935727	      0.00000000
     15.01100000	      0.00000000	      0.00000000	      0.00000000	      0.00000000	      0.00000000	      0.00000000	      0.00000000	      0.00000000	      0.00000000	     60.60895254	    168.08493099	      1.10064683	      1.99610182	      0.00000000	      0.98359545	     -0.00000000	      2.74365158	      0.00000000
     15.01200000	      0.00000000	      0.00000000	      0.00000000	      0.00000000	      0.00000000	      0.00000000	      0.00000000	      0.00000000	      0.00000000	     58.65328176	    160.36783996	      0.94103767	      1.99438902	      0.00000000	      0.98389596	     -0.00000000	      2.54794588	      0.00000000
     15.01300000	      0.00000000	      0.00000000	      0.00000000	      0.00000000	      0.00000000	      0.00000000	      0.00000000	      0.00000000	      0.00000000	     56.69761098	    152.65074893	      0.78142852	      1.99267621	      0.00000000	      0.98419647	     -0.00000000	      2.35224019	      0.00000000
     15.01400000	      0.00000000	      0.00000000	      0.00000000	      0.00000000	      0.00000000	      0.00000000	      0.00000000	      0.00000000	      0.00000000	     54.77449015	    145.42683526	      0.65041732	      1.99102211	      0.00000000	      0.98449641	     -0.00000000	      2.15891055	      0.00000000
     15.01500000	      0.00000000	      0.00000000	      0.00000000	      0.00000000	      0.00000000	      0.00000000	      0.00000000	      0.00000000	      0.00000000	     52.86764429	    138.44951028	      0.53370509	      1.98939735	      0.00000000	      0.98479607	     -0.00000000	      1.96676893	      0.00000000
     15.01600000	      0.00000000	      0.00000000	      0.00000000	      0.00000000	      0.00000000	      0.00000000	      0.00000000	      0.00000000	      0.00000000	     50.96079842	    131.47218529	      0.41699286	      1.98777260	      0.00000000	      0.98509573	     -0.00000000	      1.77462731	      0.00000000
     15.01700000	      0.00000000	      0.00000000	      0.00000000	      0.00000000	      0.00000000	      0.00000000	      0.00000000	      0.00000000	      0.00000000	     49.08088597	    124.74038262	      0.31242616	      1.98618087	      0.00000000	      0.98539347	     -0.00000000	      1.58450607	      0.00000000
     15.01800000	      0.00000000	      0.00000000	      0.00000000	      0.00000000	      0.00000000	      0.00000000	      0.00000000	      0.00000000	      0.00000000	     47.25484031	    118.49962460	      0.23215054	      1.98465518	      0.00000000	      0.98568740	     -0.00000000	      1.39842560	      0.00000000
     15.01900000	      0.00000000	      0.00000000	      0.00000000	      0.00000000	      0.00000000	      0.00000000	      0.00000000	      0.00000000	      0.00000000	     45.42879466	    112.25886657	      0.15187492	      1.98312950	      0.00000000	      0.98598132	     -0.00000000	      1.21234513	      0.00000000
     15.02000000	      0.00000000	      0.00000000	      0.00000000	      0.00000000	      0.00000000	      0.00000000	      0.00000000	      0.00000000	      0.00000000	     43.60274901	    106.01810855	      0.07159930	      1.98160381	      0.00000000	      0.98627525	     -0.00000000	      1.02626466	      0.00000000
     15.02100000	      0.00000000	      0.00000000	      0.00000000	      0.00000000	      0.00000000	      0.00000000	      0.00000000	      0.00000000	      0.00000000	     41.88562949	    100.50105061	      0.02130859	      1.98018791	      0.00000000	      0.98655854	     -0.00000000	      0.84876738	      0.00000000
     15.02200000	      0.00000000	      0.00000000	      0.00000000	      0.00000000	      0.00000000	      0.00000000	      0.00000000	      0.00000000	      0.00000000	     40.16850996	     94.98399268	     -0.02898212	      1.97877201	      0.00000000	      0.98684183	     -0.00000000	      0.67127009	      0.00000000
     15.02300000	      0.00000000	      0.00000000	      0.00000000	      0.00000000	      0.00000000	      0.00000000	      0.00000000	      0.00000000	      0.00000000	     38.45139044	     89.46693475	     -0.07927283	      1.97735611	      0.00000000	      0.98712512	     -0.00000000	      0.49377280	      0.00000000
     15.02400000	      0.00000000	      0.00000000	      0.00000000	      0.00000000	      0.00000000	      0.00000000	      0.00000000	      0.00000000	      0.00000000	     36.82258252	     84.41773770	     -0.11373523	      1.97601994	      0.00000000	      0.98739820	     -0.00000000	      0.32361838	      0.00000000
     15.02500000	      0.00000000	      0.00000000	      0.00000000	      0.00000000	      0.00000000	      0.00000000	      0.00000000	      0.00000000	      0.00000000	     35.23793040	     79.60247110	     -0.14028348	      1.97472364	      0.00000000	      0.98766617	     -0.00000000	      0.15713539	      0.00000000
     15.02600000	      0.00000000	      0.00000000	      0.00000000	      0.00000000	      0.00000000	      0.00000000	      0.00000000	      0.00000000	      0.00000000	     33.65327827	     74.78720449	     -0.16683173	      1.97342735	      0.00000000	      0.98793415	     -0.00000000	     -0.00934760	      0.00000000
     15.02700000	      0.00000000	      0.00000000	      0.00000000	      0.00000000	      0.00000000	      0.00000000	      0.00000000	      0.00000000	      0.00000000	     32.11890263	     70.19580614	     -0.18741465	      1.97217368	      0.00000000	      0.98819561	     -0.00000000	     -0.17142173	      0.00000000
     15.02800000	      0.00000000	      0.00000000	      0.00000000	      0.00000000	      0.00000000	      0.00000000	      0.00000000	      0.00000000	      0.00000000	     30.68507994	     66.05214432	     -0.19606692	      1.97100526	      0.00000000	      0.98844404	     -0.00000000	     -0.32467816	      0.00000000
     15.02900000	      0.00000000	      0.00000000	      0.00000000	      0.00000000	      0.00000000	      0.00000000	      0.00000000	      0.00000000	      0.00000000	     29.25125726	     61.90848249	     -0.20471918	      1.96983684	      0.00000000	      0.98869247	     -0.00000000	     -0.47793459	      0.00000000
     15.03000000	      0.00000000	      0.00000000	      0.00000000	      0.00000000	      0.00000000	      0.00000000	      0.00000000	      0.00000000	      0.00000000	     27.81743458	     57.76482066	     -0.21337144	      1.96866843	      0.00000000	      0.98894090	     -0.00000000	     -0.63119102	      0.00000000
     15.03100000	      0.00000000	      0.00000000	      0.00000000	      0.00000000	      0.00000000	      0.00000000	      0.00000000	      0.00000000	      0.00000000	     19.47220420	     40.43537446	     -0.14936001	      1.37806790	      0.00000000	      0.69225863	     -0.00000000	     -0.44183371	      0.00000000
     15.03200000	      0.00000000	      0.00000000	      0.00000000	      0.00000000	      0.00000000	      0.00000000	      0.00000000	      0.00000000	      0.00000000	     11.12697383	     23.10592827	     -0.08534858	      0.78746737	      0.00000000	      0.39557636	     -0.00000000	     -0.25247641	      0.00000000
     15.03300000	      0.00000000	      0.00000000	      0.00000000	      0.00000000	      0.00000000	      0.00000000	      0.00000000	      0.00000000	      0.00000000	      2.78174346	      5.77648207	     -0.02133714	      0.19686684	      0.00000000	      0.09889409	     -0.00000000	     -0.06311910	      0.00000000
     15.03400000	      0.00000000	      0.00000000	      0.00000000	      0.00000000	      0.00000000	      0.00000000	      0.00000000	      0.00000000	      0.00000000	      0.00000000	      0.00000000	      0.00000000	      0.00000000	      0.00000000	      0.00000000	      0.00000000	      0.00000000	      0.00000000
     15.03500000	      0.00000000	      0.00000000	      0.00000000	      0.00000000	      0.00000000	      0.00000000	      0.00000000	      0.00000000	      0.00000000	      0.00000000	      0.00000000	      0.00000000	      0.00000000	      0.00000000	      0.00000000	      0.00000000	      0.00000000	      0.00000000
